<?xml version="1.0" encoding="UTF-8"?>
<svg xmlns="http://www.w3.org/2000/svg" xmlns:xlink="http://www.w3.org/1999/xlink" width="3001" height="3001" viewBox="0 0 3001 3001">
<path fill-rule="evenodd" fill="rgb(100%, 100%, 100%)" fill-opacity="1" d="M 1 0 L 3001 0 L 3001 3000 L 1 3000 L 1 0 "/>
<path fill-rule="nonzero" fill="rgb(0%, 0%, 0%)" fill-opacity="1" d="M 1578.070312 1488.128906 L 1656.628906 1601.921875 L 1637.96875 1614.808594 L 1555.039062 1494.679688 L 1554.941406 1494.539062 C 1542.890625 1477.648438 1531.519531 1461.859375 1521.148438 1447.601562 L 1521.101562 1447.601562 C 1512.078125 1435.191406 1503.378906 1423.339844 1495.109375 1412.160156 L 1438.390625 1466.078125 L 1401.289062 1501.328125 L 1393.46875 1508.769531 L 1385.640625 1501.328125 L 1348.558594 1466.078125 L 1280.96875 1401.828125 L 1213.390625 1466.078125 L 1184.261719 1493.761719 L 1176.441406 1501.191406 L 1168.609375 1493.761719 L 1139.488281 1466.078125 L 1079.269531 1408.828125 C 993.425781 1524.460938 903.023438 1657.578125 842.1875 1747.148438 C 823.140625 1775.191406 806.941406 1799.039062 794.828125 1816.570312 L 2206.851562 1816.570312 C 2162.519531 1754.941406 2015.460938 1551.609375 1903.589844 1408.550781 C 1838.75 1325.621094 1787.21875 1263.410156 1778.621094 1263.410156 C 1742.769531 1263.410156 1618.328125 1432.851562 1578.070312 1488.128906 Z M 763.792969 1821.371094 C 776.660156 1803.320312 797.308594 1772.910156 823.4375 1734.449219 C 885.175781 1643.550781 977.09375 1508.179688 1062.660156 1393.050781 L 1068.679688 1384.980469 C 1114.160156 1324.078125 1157.949219 1268.859375 1194.78125 1228.691406 L 1194.789062 1228.710938 C 1233.339844 1186.671875 1265.441406 1160.679688 1285.941406 1160.679688 C 1306.609375 1160.679688 1339.089844 1187.128906 1378.101562 1229.828125 C 1415.398438 1270.648438 1459.730469 1326.699219 1505.679688 1388.359375 L 1506.390625 1389.300781 L 1511.691406 1396.410156 L 1511.679688 1396.421875 C 1521.320312 1409.421875 1530.609375 1422.050781 1539.488281 1434.269531 L 1539.460938 1434.289062 C 1548.191406 1446.28125 1556.449219 1457.710938 1564.28125 1468.609375 C 1610.191406 1405.761719 1733.199219 1240.660156 1778.621094 1240.660156 C 1795.449219 1240.660156 1852.679688 1306.640625 1921.449219 1394.601562 C 2051.988281 1561.519531 2229.679688 1809.390625 2238.210938 1821.371094 L 2251 1839.328125 L 751 1839.328125 Z M 1211.480469 1244.070312 C 1177.019531 1281.648438 1135.949219 1333.21875 1092.941406 1390.511719 L 1155.140625 1449.628906 L 1176.441406 1469.878906 L 1197.75 1449.628906 L 1273.148438 1377.949219 L 1280.96875 1370.519531 L 1288.789062 1377.949219 L 1364.199219 1449.628906 L 1393.46875 1477.449219 L 1422.738281 1449.628906 L 1481.460938 1393.828125 C 1437.960938 1335.738281 1396.320312 1283.328125 1361.398438 1245.109375 C 1326.601562 1207.03125 1299.558594 1183.429688 1285.941406 1183.429688 C 1272.460938 1183.429688 1245.800781 1206.578125 1211.480469 1244.019531 L 1211.480469 1244.070312 "/>
</svg>
